<svg width="64" height="65" viewBox="0 0 64 65" fill="none" xmlns="http://www.w3.org/2000/svg">
<g id="icons8-blender-3d-480 1">
<path id="Vector" d="M46.5764 30.4709C45.0258 29.2469 42.9418 28.5016 40.6671 28.5002C38.3924 28.5016 36.3071 29.2469 34.7564 30.4709C33.1778 31.7176 32.1311 33.4736 32.0111 35.4669C31.8898 37.5149 32.7711 39.4202 34.3204 40.8309C35.9004 42.2656 38.1511 43.1669 40.6684 43.1669C43.1844 43.1669 45.4338 42.2656 47.0111 40.8296C48.5604 39.4202 49.4431 37.5149 49.3231 35.4656C49.2031 33.4749 48.1551 31.7176 46.5764 30.4709Z" fill="#01579B"/>
<path id="Vector_2" d="M61.1617 35.0763C60.8164 32.6457 59.9737 30.363 58.6804 28.283C57.4924 26.3723 55.9671 24.699 54.1511 23.2897L54.1537 23.287L54.1044 23.271C54.0671 23.2377 54.0377 23.199 53.9991 23.167L34.9991 9.08433C33.8524 8.16566 32.1724 8.34833 31.2511 9.50166C30.3311 10.651 30.5164 12.3297 31.6684 13.2497L39.6524 19.167H14.0004C12.1671 19.167 10.6671 20.667 10.6671 22.5003C10.6671 24.3337 12.1671 25.8337 14.0004 25.8337H23.5391L3.83106 42.6363C2.43373 43.8337 2.27106 45.9403 3.46973 47.3363C4.12973 48.1057 5.06306 48.5003 6.00172 48.5003C6.76972 48.5003 7.54039 48.2363 8.16972 47.6977L20.1084 37.4643C20.0791 38.5403 20.0564 39.515 20.0617 39.8123C20.0617 44.5003 25.3337 56.5003 40.9097 56.5003C52.0004 56.5003 61.2831 49.8337 61.2831 38.819C61.3791 37.5737 61.3377 36.323 61.1617 35.0763ZM52.7004 39.371C52.1657 40.8203 51.3004 42.1763 50.1204 43.3603C47.7071 45.787 44.3297 47.1603 40.6697 47.1657C37.0097 47.1723 33.6297 45.8097 31.2151 43.3897C30.0351 42.2097 29.1684 40.855 28.6324 39.4083C28.1097 37.9883 27.9057 36.4817 28.0404 34.9617C28.1711 33.4737 28.6164 32.0563 29.3351 30.7737C30.0404 29.5123 31.0111 28.3737 32.2071 27.4083C34.5537 25.523 37.5391 24.503 40.6671 24.499C43.7951 24.495 46.7791 25.507 49.1271 27.3843C50.3231 28.3443 51.2924 29.479 51.9964 30.7377C52.7151 32.019 53.1617 33.435 53.2937 34.9217C53.4271 36.4443 53.2244 37.9497 52.7004 39.371Z" fill="#FF6D00"/>
</g>
</svg>
