<svg width="64" height="65" viewBox="0 0 64 65" fill="none" xmlns="http://www.w3.org/2000/svg">
<g id="icons8-rhinoceros-6-480 1">
<g id="Group 2">
<path id="Vector" d="M55.6842 62.5002H8.31579C4.82789 62.5002 2 59.6724 2 56.1845V8.81603C2 5.32814 4.82789 2.50024 8.31579 2.50024H55.6842C59.1721 2.50024 62 5.32814 62 8.81603V56.1845C62 59.6724 59.1721 62.5002 55.6842 62.5002Z" fill="#263238"/>
<path id="Vector_2" d="M58.1553 32.0739C55.6116 34.1866 52.7679 36.0387 50.0079 37.8529C48.4842 38.8539 47.4358 39.3418 45.5774 39.4934C43.1884 39.6892 44.1579 38.0108 45.02 36.9024C45.4953 36.2897 47.8684 34.0839 46.7474 33.2771C45.8853 32.655 44.0647 34.3066 43.2137 34.6018C39.5063 35.8871 37.801 31.8782 37.13 29.1466C36.6074 27.0197 35.1989 27.7176 33.961 28.6839C32.0268 30.585 29.3568 31.946 26.4374 33.026C25.1174 33.5613 24.931 35.9787 26.8953 36.2566C27.9295 36.4018 29.2337 36.3182 30.2837 36.3466C29.9395 36.7476 28.5263 37.8987 29.1563 38.6408C29.5353 39.0876 30.68 39.7445 31.1537 40.0871C31.6889 40.4755 32.2384 40.9776 32.8653 41.2034C34.0826 41.6424 34.9637 40.316 33.9389 39.4539C35.1421 39.1082 36.3453 38.7624 37.5484 38.4166C38.5321 38.1339 39.2758 38.5792 40.2437 38.9045C38.3568 39.1397 36.0295 39.0687 35.1184 41.1103C34.3321 42.5029 33.9879 45.0055 31.7758 44.5729C30.7242 44.3676 28.6621 43.3934 27.9847 42.5676C27.3374 41.7766 27.9058 39.8882 27.86 38.9282C27.811 37.9287 27.3468 37.0871 26.4468 36.6197C26.3442 38.2382 26.2416 39.8582 26.1389 41.4766C25.9747 44.0597 27.3516 44.5618 29.4784 45.8076C32.6774 47.6803 35.7405 49.7029 38.5274 52.1566C39.2821 52.8213 41.0647 55.2245 42.1542 54.135C42.7732 53.516 42.0895 52.6129 41.5984 52.1692L39.8947 50.3866C39.751 50.2603 39.3153 49.7834 39.5489 49.5718C39.8647 49.2876 40.5768 50.4245 40.8326 50.5334C40.9037 50.5634 40.6589 49.0997 40.6589 49.1187C40.7079 48.2755 41.4389 47.6155 42.2805 47.6503C44.7089 47.7497 44.2384 50.1766 44.2384 51.6434C44.2384 49.8924 40.4458 49.8355 42.1621 51.8092C44.2005 54.1524 45.9468 51.4097 46.7032 49.2624C47.3442 47.4387 46.9368 46.9018 48.3011 45.6497C49.7016 44.3645 51.1021 43.0792 52.5026 41.7955C54.3768 40.076 56.2716 38.3724 58.0274 36.5297C59.4721 35.0139 60.6974 33.3576 61.0953 31.2418C61.5468 28.8276 58.7789 31.5545 58.1553 32.0739Z" fill="#FAFAFA"/>
<path id="Vector_3" d="M32.5175 39.7823C32.3943 39.7823 32.2728 39.735 32.1796 39.6402C31.7833 39.236 31.3649 38.9171 30.9401 38.6913C30.7096 38.5681 30.6196 38.2808 30.7428 38.0502C30.8643 37.8197 31.1486 37.7297 31.3822 37.8529C31.8954 38.1244 32.3912 38.5018 32.857 38.9771C33.0401 39.1634 33.037 39.465 32.8507 39.6466C32.7575 39.7381 32.6375 39.7823 32.5175 39.7823Z" fill="#D32F2F"/>
<path id="Vector_4" d="M30.101 15.5424C29.04 14.5398 27.8415 13.3224 27.0615 13.3224C26.5389 13.3224 26.2057 13.8687 26.2279 15.3924C26.2642 17.9045 25.5031 20.3629 24.7768 22.7424C23.8389 25.8198 21.8305 28.8261 19.5173 31.0192C18.5226 30.6971 17.6779 30.1224 17.1 29.0945C20.1663 25.3903 22.7952 19.9082 22.5679 15.0198C22.4179 11.8098 21.3 10.7613 19.3563 10.7598C18.4594 10.7598 17.3857 10.984 16.151 11.3219C14.7094 11.7166 13.2679 12.1113 11.8247 12.5061C9.61733 13.1108 11.531 14.3992 12.1136 15.4761C14.07 19.0871 13.0626 23.2492 12.311 27.0229C10.6215 26.2887 8.86417 25.774 7.33575 25.774C4.97048 25.774 3.1547 27.0071 2.98575 30.5756C2.88785 32.6282 3.50522 33.1824 4.49049 33.1824C5.22785 33.1824 6.17364 32.8713 7.17943 32.6487C7.73364 32.5256 8.29417 32.4703 8.85627 32.4703C10.5931 32.4703 12.3331 33.004 13.8742 33.7303C18.1879 35.7656 20.591 38.9977 23.0779 42.9324C23.6163 43.785 24.011 44.1213 24.2952 44.1213C25.1321 44.1213 25.0057 41.2082 24.78 40.024C24.3442 37.7503 23.0163 35.7056 22.0326 33.634C26.0147 32.4577 31.2457 30.7382 34.0436 27.4698C37.0105 24.0087 32.7789 18.0735 30.101 15.5424Z" fill="#FAFAFA"/>
</g>
</g>
</svg>
