<?xml version="1.0" encoding="utf-8"?>
<!-- Generator: Adobe Illustrator 28.2.0, SVG Export Plug-In . SVG Version: 6.00 Build 0)  -->
<svg version="1.1" xmlns="http://www.w3.org/2000/svg" xmlns:xlink="http://www.w3.org/1999/xlink" x="0px" y="0px"
	 viewBox="0 0 2000 1137.2" style="enable-background:new 0 0 2000 1137.2;" xml:space="preserve">
<style type="text/css">
	.st0{display:none;}
	.st1{display:inline;fill:none;stroke:#FF0000;stroke-width:15;stroke-miterlimit:10;}
	.st2{display:inline;fill:#FF0000;}
	.st3{display:inline;fill:#FFFFFF;stroke:#FF0000;stroke-width:15;stroke-miterlimit:10;}
	.st4{display:inline;fill:#141314;}
	.st5{fill:#FFFFFF;}
</style>
<g id="Layer_1" class="st0">
	
		<image style="display:inline;overflow:visible;" width="2000" height="2000" xlink:href="F18167F55213770F.jpg"  transform="matrix(1 0 0 1 132.5919 -178.5123)">
	</image>
	<path class="st1" d="M1362,639.6L1278.7,432L1362,639.6z"/>
	<path class="st2" d="M1210.9,243.1l-0.3-0.1l-374.3,947.2h153.2c99.5-251.8,199-503.5,298.5-755.3L1210.9,243.1z"/>
	<path class="st3" d="M757.4,1182.6h322.3H757.4z"/>
	<path class="st2" d="M1224.9,795.9c25.2-6.9,95.7-22.6,167.1,12.1c64.4,31.3,95.6,87.1,108.7,110.5c15.1,27,27.4,64.3,52.1,138.9
		c13.6,41.3,23.5,75.4,55.9,97.2c15.8,10.7,31.8,14.8,42.7,16.7c0.5,4.9,1,9.9,1.5,14.8c-20.6,3.1-49.5,5.7-83.7,3.1
		c-30.1-2.3-69.7-5.3-106.2-24.5c-66.9-35.1-94.2-108.8-110.3-152.2c-11.4-30.7-13.2-47.7-38.8-120.5
		c-12.2-34.6-23.8-65.1-52.7-78.5c-13.6-6.3-26.8-6.8-36.1-6.3C1224.9,803.4,1224.9,799.6,1224.9,795.9z"/>
	<circle class="st2" cx="1839.2" cy="1038.5" r="151.7"/>
</g>
<g id="Layer_3" class="st0">
	<rect x="0" class="st4" width="2000" height="2000"/>
</g>
<g id="Layer_2">
	<g>
		<g>
			<path class="st5" d="M1245,476.3L1145,227L1245,476.3z"/>
			
				<rect x="1186" y="217.3" transform="matrix(0.9281 -0.3724 0.3724 0.9281 -44.9835 470.3325)" class="st5" width="18" height="268.6"/>
		</g>
		<g>
			<path class="st5" d="M1063.6,0.1l-0.3-0.1L613.8,1137.2h183.9c119.5-302.3,238.9-604.5,358.4-906.8L1063.6,0.1z"/>
		</g>
		<g>
			<path class="st5" d="M519.1,1128.2h386.9H519.1z"/>
			<rect x="519.1" y="1119.2" class="st5" width="386.9" height="18"/>
		</g>
		<g>
			<path class="st5" d="M1080.4,663.9c30.2-8.3,114.9-27.2,200.6,14.5c77.3,37.6,114.7,104.5,130.5,132.6
				c18.1,32.4,32.9,77.2,62.5,166.8c16.4,49.5,28.2,90.5,67.1,116.7c19,12.8,38.2,17.8,51.2,20.1c0.6,5.9,1.2,11.9,1.8,17.8
				c-24.8,3.7-59.4,6.8-100.5,3.7c-36.2-2.8-83.6-6.4-127.5-29.4c-80.4-42.1-113.1-130.6-132.4-182.7
				c-13.6-36.8-15.8-57.2-46.6-144.7c-14.6-41.6-28.6-78.2-63.3-94.2c-16.3-7.5-32.2-8.2-43.4-7.5
				C1080.4,672.9,1080.4,668.4,1080.4,663.9z"/>
		</g>
		<g>
			<circle class="st5" cx="1817.9" cy="955.2" r="182.1"/>
		</g>
		<g>
			<path class="st5" d="M818,705.8L625.8,227L818,705.8z"/>
			
				<rect x="712.9" y="208.4" transform="matrix(0.9281 -0.3724 0.3724 0.9281 -121.7555 302.397)" class="st5" width="18" height="515.9"/>
		</g>
		<g>
			<path class="st5" d="M544.4,0.1L544.1,0L94.6,1137.2h183.9C398,835,517.5,532.7,636.9,230.4L544.4,0.1z"/>
		</g>
		<g>
			<path class="st5" d="M0,1128.2h386.9H0z"/>
			<rect x="0" y="1119.2" class="st5" width="386.9" height="18"/>
		</g>
	</g>
</g>
</svg>
